<svg width="32" height="32" viewBox="0 0 32 32" fill="none" xmlns="http://www.w3.org/2000/svg">
  <!-- Background circle with gradient -->
  <defs>
    <linearGradient id="bgGradient" x1="0%" y1="0%" x2="100%" y2="100%">
      <stop offset="0%" style="stop-color:#eab8d1;stop-opacity:1" />
      <stop offset="100%" style="stop-color:#c4b6d4;stop-opacity:1" />
    </linearGradient>
    <linearGradient id="accentGradient" x1="0%" y1="0%" x2="100%" y2="100%">
      <stop offset="0%" style="stop-color:#a36e99;stop-opacity:1" />
      <stop offset="100%" style="stop-color:#8b5a8b;stop-opacity:1" />
    </linearGradient>
  </defs>
  
  <!-- Main background circle -->
  <circle cx="16" cy="16" r="15" fill="url(#bgGradient)" stroke="url(#accentGradient)" stroke-width="1"/>
  
  <!-- Elegant flower/spa symbol -->
  <!-- Center circle -->
  <circle cx="16" cy="16" r="4" fill="url(#accentGradient)"/>
  
  <!-- Petals around center -->
  <path d="M16 8 C18 8 19 9 19 11 C19 13 18 14 16 14 C14 14 13 13 13 11 C13 9 14 8 16 8" fill="url(#accentGradient)"/>
  <path d="M24 16 C24 18 23 19 21 19 C19 19 18 18 18 16 C18 14 19 13 21 13 C23 13 24 14 24 16" fill="url(#accentGradient)"/>
  <path d="M16 24 C18 24 19 23 19 21 C19 19 18 18 16 18 C14 18 13 19 13 21 C13 23 14 24 16 24" fill="url(#accentGradient)"/>
  <path d="M8 16 C8 18 9 19 11 19 C13 19 14 18 14 16 C14 14 13 13 11 13 C9 13 8 14 8 16" fill="url(#accentGradient)"/>
  
  <!-- Decorative dots -->
  <circle cx="12" cy="12" r="1" fill="white" opacity="0.8"/>
  <circle cx="20" cy="12" r="1" fill="white" opacity="0.8"/>
  <circle cx="12" cy="20" r="1" fill="white" opacity="0.8"/>
  <circle cx="20" cy="20" r="1" fill="white" opacity="0.8"/>
</svg>
